<svg xmlns="http://www.w3.org/2000/svg" viewBox="0 0 48 48" width="48" height="48">
  <!-- Rounded navbar square (#059669 primary-500) -->
  <rect width="48" height="48" rx="11" fill="#059669" />
  <!-- Car silhouette matching navbar car icon -->
  <path fill="#ffffff" d="M38 24.5L34.8 16.2C34.3 14.9 33 14 31.6 14H16.4C15 14 13.7 14.9 13.2 16.2L10 24.5C8.8 24.9 8 26.1 8 27.5V33C8 34.1 8.9 35 10 35H12C13.1 35 14 34.1 14 33V31H34V33C34 34.1 34.9 35 36 35H38C39.1 35 40 34.1 40 33V27.5C40 26.1 39.2 24.9 38 24.5ZM14.8 17.6C15.1 16.9 15.7 16.5 16.4 16.5H31.6C32.3 16.5 32.9 16.9 33.2 17.6L35.8 24.3H12.2L14.8 17.6ZM14 28.5C12.9 28.5 12 27.6 12 26.5C12 25.4 12.9 24.5 14 24.5C15.1 24.5 16 25.4 16 26.5C16 27.6 15.1 28.5 14 28.5ZM34 28.5C32.9 28.5 32 27.6 32 26.5C32 25.4 32.9 24.5 34 24.5C35.1 24.5 36 25.4 36 26.5C36 27.6 35.1 28.5 34 28.5Z"/>
</svg>